<svg width="1279" height="73" viewBox="0 0 1279 73" fill="none" xmlns="http://www.w3.org/2000/svg">
<path fill-rule="evenodd" clip-rule="evenodd" d="M0.69082 72.1797L0.69082 50.5427L522.395 50.5427H553.005C565.092 50.5427 574.439 43.1081 584.95 34.747C598.454 24.005 613.881 11.7336 639.513 11.7336C663.817 11.7336 676.771 22.7672 688.864 33.0682C699.451 42.0862 709.379 50.5427 725.687 50.5427L755.299 50.5427L1278.33 50.5427V72.1797L0.69082 72.1797Z" fill="#FBFBFB"/>
<path fill-rule="evenodd" clip-rule="evenodd" d="M755.36 50.0264L725.959 50.2392C709.651 50.2392 699.723 41.9701 689.136 33.1519C677.043 23.0792 664.089 12.29 639.785 12.29C614.153 12.29 598.726 24.2895 585.222 34.7935C574.711 42.9694 565.364 50.2392 553.278 50.2392L522.667 50.024V49.99L552.628 48.3094C564.721 48.3094 574.2 39.1134 584.86 28.7713C598.555 15.4841 614.201 0.305183 639.846 0.305183C664.163 0.305183 677.123 14.0506 689.223 26.8832C699.816 38.1175 709.749 48.6523 726.065 48.6523L755.36 50.0239L755.36 50.0264Z" fill="url(#paint0_linear_0_1)"/>
<path d="M627.195 32.5956L634.101 39.739C637.242 42.9875 642.449 42.9875 645.589 39.739L652.495 32.5956" stroke="#454545" stroke-width="2.66314" stroke-linecap="round"/>
<path d="M630.569 29.5422L635.058 34.1862C637.676 36.8932 642.015 36.8932 644.632 34.1862L649.121 29.5422" stroke="#454545" stroke-width="1.33157" stroke-linecap="round"/>
<defs>
<linearGradient id="paint0_linear_0_1" x1="639.013" y1="0.305115" x2="639.18" y2="50.2391" gradientUnits="userSpaceOnUse">
<stop stop-color="#3667C6"/>
<stop offset="1" stop-color="#3667C6" stop-opacity="0"/>
</linearGradient>
</defs>
</svg>
