<svg width="1915" height="91" viewBox="0 0 1915 91" fill="none" xmlns="http://www.w3.org/2000/svg">
<path d="M0.5 91L1914.5 91V74.3604L1135.7 74.3604L1117.33 74.3604C1065.42 74.3604 1057.02 18 989.291 18C921.562 18 901.788 74.3604 860.755 74.3604L0.5 74.3604L0.5 91Z" fill="#FBFBFB"/>
<path d="M970 41.5858L980.372 52.3151C985.089 57.1943 992.911 57.1943 997.628 52.3151L1008 41.5858" stroke="#454545" stroke-width="4" stroke-linecap="round"/>
<path d="M975.067 37L981.81 43.9757C985.741 48.0417 992.259 48.0417 996.19 43.9757L1002.93 37" stroke="#454545" stroke-width="2" stroke-linecap="round"/>
<path fill-rule="evenodd" clip-rule="evenodd" d="M1162.5 74.6804L1118.34 75C1093.85 75 1078.94 62.5799 1063.03 49.3351C1044.87 34.206 1025.41 18.0008 988.908 18.0008C950.41 18.0008 927.239 36.024 906.956 51.8008C891.168 64.0809 877.13 75 858.976 75L813 74.6767V74.6258L858 72.1016C876.164 72.1016 890.401 58.2894 906.412 42.7556C926.982 22.7986 950.481 0 989 0C1025.52 0 1044.99 20.6454 1063.16 39.9197C1079.07 56.7936 1093.99 72.6167 1118.5 72.6167L1162.5 74.6767L1162.5 74.6804Z" fill="url(#paint0_linear_339_13074)"/>
<defs>
<linearGradient id="paint0_linear_339_13074" x1="987.75" y1="0" x2="988" y2="75" gradientUnits="userSpaceOnUse">
<stop stop-color="#3667C6"/>
<stop offset="1" stop-color="#3667C6" stop-opacity="0"/>
</linearGradient>
</defs>
</svg>
