<svg width="360" height="49" viewBox="0 0 360 49" fill="none" xmlns="http://www.w3.org/2000/svg">
<path fill-rule="evenodd" clip-rule="evenodd" d="M360 48.5L0 48.5L0.00317383 34.3267L103.978 34.3267L124.894 34.3267C133.152 34.3267 139.539 29.2468 146.721 23.5337C155.948 16.1939 166.489 7.80893 184.003 7.80893C200.61 7.80893 209.461 15.3481 217.724 22.3866C224.958 28.5485 231.742 34.3267 242.885 34.3267H263.119L360.003 34.3267L360 48.5Z" fill="#FBFBFB"/>
<path fill-rule="evenodd" clip-rule="evenodd" d="M263.16 33.9739L243.07 34.1193C231.928 34.1193 225.144 28.4691 217.91 22.4437C209.647 15.5611 200.796 8.18901 184.189 8.18901C166.675 8.18901 156.134 16.3882 146.906 23.5654C139.724 29.1519 133.338 34.1193 125.079 34.1193L104.164 33.9723V33.9491L124.635 32.8008C132.898 32.8008 139.375 26.5172 146.659 19.4506C156.017 10.3716 166.707 0 184.23 0C200.846 0 209.702 9.39207 217.969 18.1604C225.207 25.8368 231.994 33.0351 243.143 33.0351L263.16 33.9722L263.16 33.9739Z" fill="url(#paint0_linear_339_13075)"/>
<path d="M175.587 22.0636V22.0636C180.304 26.9428 188.157 26.9428 192.874 22.0636V22.0636" stroke="#454545" stroke-width="1.5" stroke-linecap="round"/>
<path d="M177.892 19.9774V19.9774C181.357 23.5621 187.103 23.5621 190.569 19.9774V19.9774" stroke="#454545" stroke-linecap="round"/>
<defs>
<linearGradient id="paint0_linear_339_13075" x1="183.662" y1="0" x2="183.775" y2="34.1193" gradientUnits="userSpaceOnUse">
<stop stop-color="#3667C6"/>
<stop offset="1" stop-color="#3667C6" stop-opacity="0"/>
</linearGradient>
</defs>
</svg>
