<svg width="105" height="25" viewBox="0 0 105 25" fill="none" xmlns="http://www.w3.org/2000/svg">
<g clip-path="url(#clip0_0_1)">
<path d="M0.596149 13.3664V17.487C0.596149 18.2426 1.01955 18.9396 1.70447 19.3152L11.0002 24.403C11.6956 24.784 12.553 24.773 13.2379 24.3755L16.3904 22.5455C17.0658 22.1535 17.4787 21.4529 17.4787 20.6973V17.2361C17.4787 16.4814 17.0572 15.7853 16.3732 15.4098L6.337 9.8979C5.65304 9.52238 5.23156 8.82538 5.23156 8.0716V3.38037L1.62496 5.33032C0.933339 5.704 0.506104 6.40467 0.506104 7.16395V10.7918C0.506104 11.5493 0.930465 12.2481 1.61921 12.6227L12.2867 18.4322C12.5808 18.5925 12.6775 18.9534 12.5022 19.2291C12.3336 19.4938 11.9744 19.5826 11.6928 19.4278L0.596149 13.3664Z" fill="#FBFBFB"/>
<path d="M23.0519 11.3628V7.24218C23.0519 6.48656 22.6285 5.78957 21.9436 5.41405L12.6479 0.326234C11.9524 -0.0547798 11.0951 -0.0437891 10.4102 0.353711L7.25764 2.18368C6.5823 2.57568 6.16943 3.27634 6.16943 4.03196V7.49314C6.16943 8.24784 6.59092 8.94392 7.27488 9.31944L17.3101 14.8313C17.9941 15.2068 18.4156 15.9038 18.4156 16.6576V21.3479L22.0222 19.398C22.7138 19.0243 23.141 18.3236 23.141 17.5644V13.9365C23.141 13.179 22.7167 12.4802 22.0279 12.1056L11.3624 6.29697C11.0683 6.13669 10.9715 5.77583 11.1468 5.50014C11.3154 5.23545 11.6746 5.14661 11.9563 5.30139L23.0519 11.3628Z" fill="#FBFBFB"/>
</g>
<path d="M36.8362 14.7752C36.8362 14.6426 36.8167 14.5236 36.7777 14.4183C36.7387 14.309 36.6665 14.2076 36.5612 14.114C36.4559 14.0204 36.3037 13.9267 36.1048 13.8331C35.9097 13.7356 35.6523 13.6341 35.3324 13.5288C34.9579 13.404 34.597 13.2635 34.2498 13.1075C33.9026 12.9476 33.5925 12.7623 33.3194 12.5516C33.0463 12.337 32.8298 12.0874 32.6699 11.8026C32.5099 11.5139 32.43 11.1784 32.43 10.7961C32.43 10.4294 32.5119 10.0998 32.6757 9.80717C32.8396 9.51069 33.0678 9.25907 33.3604 9.05231C33.6568 8.84166 34.004 8.68171 34.402 8.57248C34.7999 8.45935 35.2348 8.40278 35.7069 8.40278C36.331 8.40278 36.8811 8.51201 37.357 8.73047C37.8369 8.94503 38.2114 9.25127 38.4805 9.64918C38.7536 10.0432 38.8902 10.5094 38.8902 11.0477H36.8479C36.8479 10.8332 36.8031 10.644 36.7133 10.4801C36.6275 10.3163 36.4968 10.1875 36.3213 10.0939C36.1457 10.0003 35.9253 9.95347 35.6601 9.95347C35.4026 9.95347 35.1861 9.99248 35.0105 10.0705C34.835 10.1485 34.7023 10.2538 34.6126 10.3865C34.5229 10.5152 34.478 10.6576 34.478 10.8137C34.478 10.9424 34.5131 11.0594 34.5834 11.1648C34.6575 11.2662 34.7609 11.3618 34.8935 11.4515C35.03 11.5412 35.1939 11.627 35.385 11.709C35.5801 11.7909 35.7985 11.8709 36.0404 11.9489C36.4929 12.0932 36.8947 12.2551 37.2458 12.4346C37.6008 12.6101 37.8993 12.811 38.1411 13.0373C38.3869 13.2596 38.5722 13.5132 38.6971 13.798C38.8258 14.0828 38.8902 14.4046 38.8902 14.7635C38.8902 15.1458 38.816 15.4852 38.6678 15.7817C38.5196 16.0782 38.3069 16.3298 38.03 16.5366C37.753 16.7394 37.4214 16.8935 37.0352 16.9988C36.649 17.1042 36.2179 17.1568 35.742 17.1568C35.3051 17.1568 34.874 17.1022 34.4488 16.993C34.0274 16.8799 33.6451 16.7082 33.3018 16.478C32.9585 16.244 32.6835 15.9455 32.4768 15.5827C32.2739 15.216 32.1725 14.7811 32.1725 14.2778H34.2323C34.2323 14.5275 34.2654 14.7382 34.3317 14.9098C34.398 15.0814 34.4956 15.2199 34.6243 15.3253C34.753 15.4267 34.911 15.5008 35.0983 15.5476C35.2855 15.5905 35.5001 15.612 35.742 15.612C36.0033 15.612 36.214 15.5749 36.374 15.5008C36.5339 15.4228 36.6509 15.3214 36.725 15.1965C36.7992 15.0678 36.8362 14.9274 36.8362 14.7752ZM41.8452 12.0484V17.0398H39.8732V10.7083H41.7223L41.8452 12.0484ZM41.6053 13.6576L41.1547 13.6693C41.1547 13.2245 41.2074 12.8149 41.3127 12.4404C41.4181 12.0659 41.5741 11.7402 41.7809 11.4632C41.9876 11.1862 42.2412 10.9717 42.5416 10.8195C42.8459 10.6674 43.197 10.5913 43.5949 10.5913C43.8718 10.5913 44.1235 10.6342 44.3497 10.72C44.576 10.802 44.771 10.9326 44.9349 11.1121C45.0987 11.2876 45.2236 11.5178 45.3094 11.8026C45.3991 12.0835 45.444 12.4209 45.444 12.8149V17.0398H43.472V13.0665C43.472 12.7974 43.4408 12.5945 43.3784 12.458C43.3198 12.3214 43.234 12.2298 43.1209 12.1829C43.0078 12.1361 42.8693 12.1127 42.7054 12.1127C42.5338 12.1127 42.3797 12.1517 42.2431 12.2298C42.1066 12.3078 41.9896 12.417 41.892 12.5574C41.7984 12.694 41.7262 12.8559 41.6755 13.0431C41.6287 13.2304 41.6053 13.4352 41.6053 13.6576ZM45.2216 13.6576L44.6716 13.6693C44.6716 13.2245 44.7203 12.8149 44.8179 12.4404C44.9193 12.0659 45.0695 11.7402 45.2684 11.4632C45.4713 11.1862 45.7229 10.9717 46.0233 10.8195C46.3237 10.6674 46.6728 10.5913 47.0707 10.5913C47.3594 10.5913 47.6247 10.6342 47.8666 10.72C48.1084 10.8059 48.3171 10.9443 48.4927 11.1355C48.6682 11.3266 48.8048 11.5802 48.9023 11.8962C48.9998 12.2083 49.0486 12.5945 49.0486 13.0548V17.0398H47.0707V13.0548C47.0707 12.7935 47.0395 12.5965 46.9771 12.4638C46.9186 12.3273 46.8328 12.2356 46.7196 12.1888C46.6065 12.1381 46.4719 12.1127 46.3159 12.1127C46.1286 12.1127 45.9667 12.1517 45.8302 12.2298C45.6937 12.3078 45.5786 12.417 45.4849 12.5574C45.3952 12.694 45.3289 12.8559 45.286 13.0431C45.2431 13.2304 45.2216 13.4352 45.2216 13.6576ZM53.4666 15.4482V12.8383C53.4666 12.6589 53.4412 12.5048 53.3905 12.376C53.3398 12.2473 53.2598 12.1478 53.1506 12.0776C53.0414 12.0035 52.8951 11.9664 52.7117 11.9664C52.5635 11.9664 52.4367 11.9918 52.3314 12.0425C52.226 12.0932 52.1461 12.1693 52.0914 12.2707C52.0368 12.3721 52.0095 12.5009 52.0095 12.6569H50.0375C50.0375 12.3643 50.1019 12.0932 50.2306 11.8435C50.3633 11.59 50.5505 11.3696 50.7924 11.1823C51.0381 10.9951 51.3307 10.8507 51.6701 10.7493C52.0134 10.644 52.3957 10.5913 52.817 10.5913C53.3203 10.5913 53.7689 10.6752 54.1629 10.8429C54.5608 11.0107 54.8749 11.2623 55.105 11.5978C55.3352 11.9294 55.4503 12.3468 55.4503 12.85V15.4423C55.4503 15.8558 55.4737 16.1699 55.5205 16.3844C55.5673 16.5951 55.6336 16.7804 55.7195 16.9403V17.0398H53.7416C53.648 16.8447 53.5778 16.6068 53.5309 16.3259C53.488 16.0411 53.4666 15.7485 53.4666 15.4482ZM53.7065 13.1719L53.7182 14.2252H52.8463C52.663 14.2252 52.5069 14.2505 52.3782 14.3012C52.2533 14.3519 52.1519 14.4222 52.0739 14.5119C51.9998 14.5977 51.9452 14.6952 51.91 14.8045C51.8788 14.9137 51.8632 15.0288 51.8632 15.1497C51.8632 15.2667 51.8905 15.3721 51.9452 15.4657C52.0037 15.5554 52.0817 15.6256 52.1792 15.6764C52.2767 15.7271 52.386 15.7524 52.5069 15.7524C52.7254 15.7524 52.9107 15.7115 53.0628 15.6296C53.2189 15.5437 53.3378 15.4403 53.4198 15.3194C53.5017 15.1985 53.5426 15.0853 53.5426 14.98L53.9757 15.7875C53.8976 15.9436 53.8079 16.1016 53.7065 16.2615C53.609 16.4215 53.4861 16.5697 53.3378 16.7063C53.1935 16.8389 53.016 16.9481 52.8053 17.0339C52.5947 17.1159 52.3392 17.1568 52.0388 17.1568C51.6487 17.1568 51.2898 17.0769 50.9621 16.9169C50.6383 16.757 50.3789 16.5346 50.1838 16.2498C49.9888 15.9611 49.8912 15.6296 49.8912 15.255C49.8912 14.9274 49.9497 14.6348 50.0668 14.3773C50.1877 14.1198 50.3691 13.9014 50.611 13.7219C50.8528 13.5425 51.161 13.4059 51.5355 13.3123C51.91 13.2187 52.3509 13.1719 52.858 13.1719H53.7065ZM58.5341 12.2766V17.0398H56.5621V10.7083H58.4054L58.5341 12.2766ZM60.4066 10.6615L60.3715 12.4931C60.2935 12.4853 60.1882 12.4755 60.0555 12.4638C59.9229 12.4521 59.8117 12.4463 59.722 12.4463C59.4918 12.4463 59.2929 12.4736 59.1251 12.5282C58.9613 12.5789 58.8247 12.6569 58.7155 12.7623C58.6102 12.8637 58.5321 12.9924 58.4814 13.1485C58.4346 13.3045 58.4132 13.4859 58.4171 13.6927L58.0601 13.4586C58.0601 13.0334 58.1011 12.6472 58.183 12.3C58.2688 11.9489 58.3898 11.6465 58.5458 11.393C58.7018 11.1355 58.891 10.9385 59.1134 10.802C59.3358 10.6615 59.5854 10.5913 59.8624 10.5913C59.9599 10.5913 60.0555 10.5971 60.1491 10.6088C60.2467 10.6206 60.3325 10.6381 60.4066 10.6615ZM64.7134 10.7083V12.0776H60.8981V10.7083H64.7134ZM61.6998 9.13424H63.6718V14.9742C63.6718 15.1419 63.6913 15.2726 63.7303 15.3662C63.7694 15.456 63.8357 15.5203 63.9293 15.5593C64.0268 15.5944 64.1556 15.612 64.3155 15.612C64.4286 15.612 64.5223 15.61 64.5964 15.6061C64.6705 15.5983 64.7407 15.5886 64.807 15.5769V16.9871C64.6393 17.0417 64.4637 17.0827 64.2804 17.11C64.097 17.1412 63.902 17.1568 63.6952 17.1568C63.2739 17.1568 62.9131 17.0905 62.6127 16.9579C62.3162 16.8252 62.0899 16.6165 61.9339 16.3317C61.7778 16.047 61.6998 15.6764 61.6998 15.2199V9.13424ZM72.578 8.51982H74.2516L76.1534 14.4475L78.0551 8.51982H79.7287L76.8322 17.0398H75.4746L72.578 8.51982ZM71.5598 8.51982H73.2919L73.6138 15.0502V17.0398H71.5598V8.51982ZM79.0148 8.51982H80.7527V17.0398L78.693 17.0398V15.0502L79.0148 8.51982ZM84.0589 10.7083V17.0398H82.0811V10.7083H84.0589ZM81.964 9.07572C81.964 8.79484 82.0655 8.56468 82.2683 8.38523C82.4712 8.20578 82.7345 8.11605 83.0583 8.11605C83.3821 8.11605 83.6454 8.20578 83.8483 8.38523C84.0511 8.56468 84.1525 8.79484 84.1525 9.07572C84.1525 9.3566 84.0511 9.58676 83.8483 9.76621C83.6454 9.94566 83.3821 10.0354 83.0583 10.0354C82.7345 10.0354 82.4712 9.94566 82.2683 9.76621C82.0655 9.58676 81.964 9.3566 81.964 9.07572ZM87.2656 12.2766V17.0398H85.2936V10.7083H87.1369L87.2656 12.2766ZM89.1381 10.6615L89.103 12.4931C89.025 12.4853 88.9197 12.4755 88.787 12.4638C88.6544 12.4521 88.5432 12.4463 88.4535 12.4463C88.2233 12.4463 88.0244 12.4736 87.8566 12.5282C87.6928 12.5789 87.5562 12.6569 87.447 12.7623C87.3417 12.8637 87.2637 12.9924 87.213 13.1485C87.1661 13.3045 87.1447 13.4859 87.1486 13.6927L86.7916 13.4586C86.7916 13.0334 86.8326 12.6472 86.9145 12.3C87.0003 11.9489 87.1213 11.6465 87.2773 11.393C87.4334 11.1355 87.6226 10.9385 87.8449 10.802C88.0673 10.6615 88.317 10.5913 88.5939 10.5913C88.6915 10.5913 88.787 10.5971 88.8807 10.6088C88.9782 10.6206 89.064 10.6381 89.1381 10.6615ZM91.8065 12.2766V17.0398H89.8345V10.7083H91.6777L91.8065 12.2766ZM93.679 10.6615L93.6439 12.4931C93.5659 12.4853 93.4605 12.4755 93.3279 12.4638C93.1953 12.4521 93.0841 12.4463 92.9944 12.4463C92.7642 12.4463 92.5652 12.4736 92.3975 12.5282C92.2337 12.5789 92.0971 12.6569 91.9879 12.7623C91.8826 12.8637 91.8045 12.9924 91.7538 13.1485C91.707 13.3045 91.6855 13.4859 91.6894 13.6927L91.3325 13.4586C91.3325 13.0334 91.3735 12.6472 91.4554 12.3C91.5412 11.9489 91.6621 11.6465 91.8182 11.393C91.9742 11.1355 92.1634 10.9385 92.3858 10.802C92.6082 10.6615 92.8578 10.5913 93.1348 10.5913C93.2323 10.5913 93.3279 10.5971 93.4215 10.6088C93.5191 10.6206 93.6049 10.6381 93.679 10.6615ZM93.9014 13.9384V13.8155C93.9014 13.3513 93.9677 12.9241 94.1003 12.534C94.233 12.14 94.428 11.7987 94.6855 11.51C94.943 11.2213 95.2609 10.997 95.6393 10.8371C96.0177 10.6732 96.4546 10.5913 96.9501 10.5913C97.4494 10.5913 97.8883 10.6732 98.2667 10.8371C98.649 10.997 98.9689 11.2213 99.2264 11.51C99.4838 11.7987 99.6789 12.14 99.8115 12.534C99.9442 12.9241 100.01 13.3513 100.01 13.8155V13.9384C100.01 14.3988 99.9442 14.8259 99.8115 15.2199C99.6789 15.61 99.4838 15.9514 99.2264 16.244C98.9689 16.5327 98.6509 16.757 98.2725 16.9169C97.8941 17.0769 97.4572 17.1568 96.9618 17.1568C96.4663 17.1568 96.0275 17.0769 95.6452 16.9169C95.2628 16.757 94.943 16.5327 94.6855 16.244C94.428 15.9514 94.233 15.61 94.1003 15.2199C93.9677 14.8259 93.9014 14.3988 93.9014 13.9384ZM95.8734 13.8155V13.9384C95.8734 14.1764 95.8909 14.3988 95.926 14.6055C95.9611 14.8123 96.0197 14.9937 96.1016 15.1497C96.1835 15.3019 96.2947 15.4208 96.4351 15.5067C96.5756 15.5925 96.7511 15.6354 96.9618 15.6354C97.1685 15.6354 97.3402 15.5925 97.4767 15.5067C97.6172 15.4208 97.7283 15.3019 97.8103 15.1497C97.8922 14.9937 97.9507 14.8123 97.9858 14.6055C98.0209 14.3988 98.0385 14.1764 98.0385 13.9384V13.8155C98.0385 13.5854 98.0209 13.3689 97.9858 13.166C97.9507 12.9593 97.8922 12.7779 97.8103 12.6218C97.7283 12.4619 97.6172 12.337 97.4767 12.2473C97.3363 12.1576 97.1607 12.1127 96.9501 12.1127C96.7433 12.1127 96.5697 12.1576 96.4293 12.2473C96.2927 12.337 96.1835 12.4619 96.1016 12.6218C96.0197 12.7779 95.9611 12.9593 95.926 13.166C95.8909 13.3689 95.8734 13.5854 95.8734 13.8155ZM102.878 12.2766V17.0398H100.906V10.7083H102.749L102.878 12.2766ZM104.75 10.6615L104.715 12.4931C104.637 12.4853 104.532 12.4755 104.399 12.4638C104.267 12.4521 104.155 12.4463 104.066 12.4463C103.835 12.4463 103.637 12.4736 103.469 12.5282C103.305 12.5789 103.168 12.6569 103.059 12.7623C102.954 12.8637 102.876 12.9924 102.825 13.1485C102.778 13.3045 102.757 13.4859 102.761 13.6927L102.404 13.4586C102.404 13.0334 102.445 12.6472 102.527 12.3C102.613 11.9489 102.733 11.6465 102.889 11.393C103.046 11.1355 103.235 10.9385 103.457 10.802C103.679 10.6615 103.929 10.5913 104.206 10.5913C104.304 10.5913 104.399 10.5971 104.493 10.6088C104.59 10.6206 104.676 10.6381 104.75 10.6615Z" fill="#FBFBFB"/>
<defs>
<clipPath id="clip0_0_1">
<rect width="22.6367" height="24.6341" fill="white" transform="translate(0.505981 0.0478516)"/>
</clipPath>
</defs>
</svg>
