<svg width="181" height="30" viewBox="0 0 181 30" fill="none" xmlns="http://www.w3.org/2000/svg">
<path d="M10.0898 17.4648C10.0898 17.1992 10.0508 16.9609 9.97266 16.75C9.89453 16.5312 9.75 16.3281 9.53906 16.1406C9.32812 15.9531 9.02344 15.7656 8.625 15.5781C8.23438 15.3828 7.71875 15.1797 7.07812 14.9688C6.32812 14.7188 5.60547 14.4375 4.91016 14.125C4.21484 13.8047 3.59375 13.4336 3.04687 13.0117C2.5 12.582 2.06641 12.082 1.74609 11.5117C1.42578 10.9336 1.26562 10.2617 1.26562 9.49609C1.26562 8.76172 1.42969 8.10156 1.75781 7.51562C2.08594 6.92187 2.54297 6.41797 3.12891 6.00391C3.72266 5.58203 4.41797 5.26172 5.21484 5.04297C6.01172 4.81641 6.88281 4.70312 7.82812 4.70312C9.07812 4.70313 10.1797 4.92188 11.1328 5.35938C12.0938 5.78906 12.8438 6.40234 13.3828 7.19922C13.9297 7.98828 14.2031 8.92188 14.2031 10H10.1133C10.1133 9.57031 10.0234 9.19141 9.84375 8.86328C9.67188 8.53516 9.41016 8.27734 9.05859 8.08984C8.70703 7.90234 8.26562 7.80859 7.73438 7.80859C7.21875 7.80859 6.78516 7.88672 6.43359 8.04297C6.08203 8.19922 5.81641 8.41016 5.63672 8.67578C5.45703 8.93359 5.36719 9.21875 5.36719 9.53125C5.36719 9.78906 5.4375 10.0234 5.57812 10.2344C5.72656 10.4375 5.93359 10.6289 6.19922 10.8086C6.47266 10.9883 6.80078 11.1602 7.18359 11.3242C7.57422 11.4883 8.01172 11.6484 8.49609 11.8047C9.40234 12.0938 10.207 12.418 10.9102 12.7773C11.6211 13.1289 12.2188 13.5312 12.7031 13.9844C13.1953 14.4297 13.5664 14.9375 13.8164 15.5078C14.0742 16.0781 14.2031 16.7227 14.2031 17.4414C14.2031 18.207 14.0547 18.8867 13.7578 19.4805C13.4609 20.0742 13.0352 20.5781 12.4805 20.9922C11.9258 21.3984 11.2617 21.707 10.4883 21.918C9.71484 22.1289 8.85156 22.2344 7.89844 22.2344C7.02344 22.2344 6.16016 22.125 5.30859 21.9062C4.46484 21.6797 3.69922 21.3359 3.01172 20.875C2.32422 20.4062 1.77344 19.8086 1.35937 19.082C0.953125 18.3477 0.75 17.4766 0.75 16.4688H4.875C4.875 16.9688 4.94141 17.3906 5.07422 17.7344C5.20703 18.0781 5.40234 18.3555 5.66016 18.5664C5.91797 18.7695 6.23437 18.918 6.60937 19.0117C6.98437 19.0977 7.41406 19.1406 7.89844 19.1406C8.42187 19.1406 8.84375 19.0664 9.16406 18.918C9.48437 18.7617 9.71875 18.5586 9.86719 18.3086C10.0156 18.0508 10.0898 17.7695 10.0898 17.4648ZM20.1211 12.0039V22H16.1719V9.32031H19.875L20.1211 12.0039ZM19.6406 15.2266L18.7383 15.25C18.7383 14.3594 18.8438 13.5391 19.0547 12.7891C19.2656 12.0391 19.5781 11.3867 19.9922 10.832C20.4062 10.2773 20.9141 9.84766 21.5156 9.54297C22.125 9.23828 22.8281 9.08594 23.625 9.08594C24.1797 9.08594 24.6836 9.17188 25.1367 9.34375C25.5898 9.50781 25.9805 9.76953 26.3086 10.1289C26.6367 10.4805 26.8867 10.9414 27.0586 11.5117C27.2383 12.0742 27.3281 12.75 27.3281 13.5391V22H23.3789V14.043C23.3789 13.5039 23.3164 13.0977 23.1914 12.8242C23.0742 12.5508 22.9023 12.3672 22.6758 12.2734C22.4492 12.1797 22.1719 12.1328 21.8438 12.1328C21.5 12.1328 21.1914 12.2109 20.918 12.3672C20.6445 12.5234 20.4102 12.7422 20.2148 13.0234C20.0273 13.2969 19.8828 13.6211 19.7812 13.9961C19.6875 14.3711 19.6406 14.7813 19.6406 15.2266ZM26.8828 15.2266L25.7812 15.25C25.7812 14.3594 25.8789 13.5391 26.0742 12.7891C26.2773 12.0391 26.5781 11.3867 26.9766 10.832C27.3828 10.2773 27.8867 9.84766 28.4883 9.54297C29.0898 9.23828 29.7891 9.08594 30.5859 9.08594C31.1641 9.08594 31.6953 9.17188 32.1797 9.34375C32.6641 9.51563 33.082 9.79297 33.4336 10.1758C33.7852 10.5586 34.0586 11.0664 34.2539 11.6992C34.4492 12.3242 34.5469 13.0977 34.5469 14.0195V22L30.5859 22V14.0195C30.5859 13.4961 30.5234 13.1016 30.3984 12.8359C30.2812 12.5625 30.1094 12.3789 29.8828 12.2852C29.6562 12.1836 29.3867 12.1328 29.0742 12.1328C28.6992 12.1328 28.375 12.2109 28.1016 12.3672C27.8281 12.5234 27.5977 12.7422 27.4102 13.0234C27.2305 13.2969 27.0977 13.6211 27.0117 13.9961C26.9258 14.3711 26.8828 14.7813 26.8828 15.2266ZM43.3945 18.8125V13.5859C43.3945 13.2266 43.3438 12.918 43.2422 12.6602C43.1406 12.4023 42.9805 12.2031 42.7617 12.0625C42.543 11.9141 42.25 11.8398 41.8828 11.8398C41.5859 11.8398 41.332 11.8906 41.1211 11.9922C40.9102 12.0938 40.75 12.2461 40.6406 12.4492C40.5312 12.6523 40.4766 12.9102 40.4766 13.2227H36.5273C36.5273 12.6367 36.6562 12.0938 36.9141 11.5938C37.1797 11.0859 37.5547 10.6445 38.0391 10.2695C38.5312 9.89453 39.1172 9.60547 39.7969 9.40234C40.4844 9.19141 41.25 9.08594 42.0938 9.08594C43.1016 9.08594 44 9.25391 44.7891 9.58984C45.5859 9.92578 46.2148 10.4297 46.6758 11.1016C47.1367 11.7656 47.3672 12.6016 47.3672 13.6094V18.8008C47.3672 19.6289 47.4141 20.2578 47.5078 20.6875C47.6016 21.1094 47.7344 21.4805 47.9062 21.8008V22H43.9453C43.7578 21.6094 43.6172 21.1328 43.5234 20.5703C43.4375 20 43.3945 19.4141 43.3945 18.8125ZM43.875 14.2539L43.8984 16.3633H42.1523C41.7852 16.3633 41.4727 16.4141 41.2148 16.5156C40.9648 16.6172 40.7617 16.7578 40.6055 16.9375C40.457 17.1094 40.3477 17.3047 40.2773 17.5234C40.2148 17.7422 40.1836 17.9727 40.1836 18.2148C40.1836 18.4492 40.2383 18.6602 40.3477 18.8477C40.4648 19.0273 40.6211 19.168 40.8164 19.2695C41.0117 19.3711 41.2305 19.4219 41.4727 19.4219C41.9102 19.4219 42.2812 19.3398 42.5859 19.1758C42.8984 19.0039 43.1367 18.7969 43.3008 18.5547C43.4648 18.3125 43.5469 18.0859 43.5469 17.875L44.4141 19.4922C44.2578 19.8047 44.0781 20.1211 43.875 20.4414C43.6797 20.7617 43.4336 21.0586 43.1367 21.332C42.8477 21.5977 42.4922 21.8164 42.0703 21.9883C41.6484 22.1523 41.1367 22.2344 40.5352 22.2344C39.7539 22.2344 39.0352 22.0742 38.3789 21.7539C37.7305 21.4336 37.2109 20.9883 36.8203 20.418C36.4297 19.8398 36.2344 19.1758 36.2344 18.4258C36.2344 17.7695 36.3516 17.1836 36.5859 16.668C36.8281 16.1523 37.1914 15.7148 37.6758 15.3555C38.1602 14.9961 38.7773 14.7227 39.5273 14.5352C40.2773 14.3477 41.1602 14.2539 42.1758 14.2539H43.875ZM53.543 12.4609V22H49.5938V9.32031H53.2852L53.543 12.4609ZM57.293 9.22656L57.2227 12.8945C57.0664 12.8789 56.8555 12.8594 56.5898 12.8359C56.3242 12.8125 56.1016 12.8008 55.9219 12.8008C55.4609 12.8008 55.0625 12.8555 54.7266 12.9648C54.3984 13.0664 54.125 13.2227 53.9062 13.4336C53.6953 13.6367 53.5391 13.8945 53.4375 14.207C53.3438 14.5195 53.3008 14.8828 53.3086 15.2969L52.5938 14.8281C52.5938 13.9766 52.6758 13.2031 52.8398 12.5078C53.0117 11.8047 53.2539 11.1992 53.5664 10.6914C53.8789 10.1758 54.2578 9.78125 54.7031 9.50781C55.1484 9.22656 55.6484 9.08594 56.2031 9.08594C56.3984 9.08594 56.5898 9.09766 56.7773 9.12109C56.9727 9.14453 57.1445 9.17969 57.293 9.22656ZM65.918 9.32031V12.0625H58.2773V9.32031H65.918ZM59.8828 6.16797H63.832V17.8633C63.832 18.1992 63.8711 18.4609 63.9492 18.6484C64.0273 18.8281 64.1602 18.957 64.3477 19.0352C64.543 19.1055 64.8008 19.1406 65.1211 19.1406C65.3477 19.1406 65.5352 19.1367 65.6836 19.1289C65.832 19.1133 65.9727 19.0938 66.1055 19.0703V21.8945C65.7695 22.0039 65.418 22.0859 65.0508 22.1406C64.6836 22.2031 64.293 22.2344 63.8789 22.2344C63.0352 22.2344 62.3125 22.1016 61.7109 21.8359C61.1172 21.5703 60.6641 21.1523 60.3516 20.582C60.0391 20.0117 59.8828 19.2695 59.8828 18.3555V6.16797ZM81.668 4.9375H85.0195L88.8281 16.8086L92.6367 4.9375H95.9883L90.1875 22H87.4688L81.668 4.9375ZM79.6289 4.9375H83.0977L83.7422 18.0156V22H79.6289V4.9375ZM94.5586 4.9375H98.0391V22L93.9141 22V18.0156L94.5586 4.9375ZM104.66 9.32031V22H100.699V9.32031H104.66ZM100.465 6.05078C100.465 5.48828 100.668 5.02734 101.074 4.66797C101.48 4.30859 102.008 4.12891 102.656 4.12891C103.305 4.12891 103.832 4.30859 104.238 4.66797C104.645 5.02734 104.848 5.48828 104.848 6.05078C104.848 6.61328 104.645 7.07422 104.238 7.43359C103.832 7.79297 103.305 7.97266 102.656 7.97266C102.008 7.97266 101.48 7.79297 101.074 7.43359C100.668 7.07422 100.465 6.61328 100.465 6.05078ZM111.082 12.4609V22H107.133V9.32031H110.824L111.082 12.4609ZM114.832 9.22656L114.762 12.8945C114.605 12.8789 114.395 12.8594 114.129 12.8359C113.863 12.8125 113.641 12.8008 113.461 12.8008C113 12.8008 112.602 12.8555 112.266 12.9648C111.938 13.0664 111.664 13.2227 111.445 13.4336C111.234 13.6367 111.078 13.8945 110.977 14.207C110.883 14.5195 110.84 14.8828 110.848 15.2969L110.133 14.8281C110.133 13.9766 110.215 13.2031 110.379 12.5078C110.551 11.8047 110.793 11.1992 111.105 10.6914C111.418 10.1758 111.797 9.78125 112.242 9.50781C112.688 9.22656 113.188 9.08594 113.742 9.08594C113.938 9.08594 114.129 9.09766 114.316 9.12109C114.512 9.14453 114.684 9.17969 114.832 9.22656ZM120.176 12.4609V22H116.227V9.32031H119.918L120.176 12.4609ZM123.926 9.22656L123.855 12.8945C123.699 12.8789 123.488 12.8594 123.223 12.8359C122.957 12.8125 122.734 12.8008 122.555 12.8008C122.094 12.8008 121.695 12.8555 121.359 12.9648C121.031 13.0664 120.758 13.2227 120.539 13.4336C120.328 13.6367 120.172 13.8945 120.07 14.207C119.977 14.5195 119.934 14.8828 119.941 15.2969L119.227 14.8281C119.227 13.9766 119.309 13.2031 119.473 12.5078C119.645 11.8047 119.887 11.1992 120.199 10.6914C120.512 10.1758 120.891 9.78125 121.336 9.50781C121.781 9.22656 122.281 9.08594 122.836 9.08594C123.031 9.08594 123.223 9.09766 123.41 9.12109C123.605 9.14453 123.777 9.17969 123.926 9.22656ZM124.371 15.7891V15.543C124.371 14.6133 124.504 13.7578 124.77 12.9766C125.035 12.1875 125.426 11.5039 125.941 10.9258C126.457 10.3477 127.094 9.89844 127.852 9.57813C128.609 9.25 129.484 9.08594 130.477 9.08594C131.477 9.08594 132.355 9.25 133.113 9.57813C133.879 9.89844 134.52 10.3477 135.035 10.9258C135.551 11.5039 135.941 12.1875 136.207 12.9766C136.473 13.7578 136.605 14.6133 136.605 15.543V15.7891C136.605 16.7109 136.473 17.5664 136.207 18.3555C135.941 19.1367 135.551 19.8203 135.035 20.4063C134.52 20.9844 133.883 21.4336 133.125 21.7539C132.367 22.0742 131.492 22.2344 130.5 22.2344C129.508 22.2344 128.629 22.0742 127.863 21.7539C127.098 21.4336 126.457 20.9844 125.941 20.4063C125.426 19.8203 125.035 19.1367 124.77 18.3555C124.504 17.5664 124.371 16.7109 124.371 15.7891ZM128.32 15.543V15.7891C128.32 16.2656 128.355 16.7109 128.426 17.125C128.496 17.5391 128.613 17.9023 128.777 18.2148C128.941 18.5195 129.164 18.7578 129.445 18.9297C129.727 19.1016 130.078 19.1875 130.5 19.1875C130.914 19.1875 131.258 19.1016 131.531 18.9297C131.812 18.7578 132.035 18.5195 132.199 18.2148C132.363 17.9023 132.48 17.5391 132.551 17.125C132.621 16.7109 132.656 16.2656 132.656 15.7891V15.543C132.656 15.082 132.621 14.6484 132.551 14.2422C132.48 13.8281 132.363 13.4648 132.199 13.1523C132.035 12.832 131.812 12.582 131.531 12.4023C131.25 12.2227 130.898 12.1328 130.477 12.1328C130.062 12.1328 129.715 12.2227 129.434 12.4023C129.16 12.582 128.941 12.832 128.777 13.1523C128.613 13.4648 128.496 13.8281 128.426 14.2422C128.355 14.6484 128.32 15.082 128.32 15.543ZM142.348 12.4609V22H138.398V9.32031H142.09L142.348 12.4609ZM146.098 9.22656L146.027 12.8945C145.871 12.8789 145.66 12.8594 145.395 12.8359C145.129 12.8125 144.906 12.8008 144.727 12.8008C144.266 12.8008 143.867 12.8555 143.531 12.9648C143.203 13.0664 142.93 13.2227 142.711 13.4336C142.5 13.6367 142.344 13.8945 142.242 14.207C142.148 14.5195 142.105 14.8828 142.113 15.2969L141.398 14.8281C141.398 13.9766 141.48 13.2031 141.645 12.5078C141.816 11.8047 142.059 11.1992 142.371 10.6914C142.684 10.1758 143.062 9.78125 143.508 9.50781C143.953 9.22656 144.453 9.08594 145.008 9.08594C145.203 9.08594 145.395 9.09766 145.582 9.12109C145.777 9.14453 145.949 9.17969 146.098 9.22656Z" fill="#3667C6"/>
<path d="M155.103 16.2198V21.2382C155.103 22.1584 155.59 23.0073 156.376 23.4646L167.054 29.6609C167.853 30.1249 168.837 30.1116 169.624 29.6275L173.245 27.3988C174.021 26.9214 174.495 26.0681 174.495 25.1478V20.9325C174.495 20.0134 174.011 19.1657 173.225 18.7083L161.698 11.9956C160.912 11.5382 160.428 10.6894 160.428 9.77134V4.05801L156.285 6.43281C155.491 6.88791 155 7.74123 155 8.66593V13.0842C155 14.0067 155.487 14.8578 156.279 15.314L168.531 22.3893C168.869 22.5845 168.98 23.024 168.779 23.3597C168.585 23.6821 168.173 23.7903 167.849 23.6018L155.103 16.2198Z" fill="#3667C6"/>
<path d="M180.896 13.7803V8.76185C180.896 7.8416 180.41 6.99275 179.623 6.53541L168.946 0.339096C168.147 -0.124931 167.163 -0.111546 166.376 0.372559L162.755 2.60123C161.979 3.07864 161.505 3.93196 161.505 4.8522V9.06748C161.505 9.98661 161.989 10.8344 162.775 11.2917L174.301 18.0045C175.087 18.4618 175.571 19.3106 175.571 20.2287V25.9409L179.714 23.5661C180.508 23.111 180.999 22.2577 180.999 21.333V16.9147C180.999 15.9922 180.511 15.1411 179.72 14.6849L167.47 7.61071C167.132 7.4155 167.021 6.97602 167.222 6.64027C167.416 6.3179 167.828 6.2097 168.152 6.39821L180.896 13.7803Z" fill="#3667C6"/>
</svg>
