<svg width="26" height="30" viewBox="0 0 26 30" fill="none" xmlns="http://www.w3.org/2000/svg">
<path d="M0.103428 16.2197V21.2381C0.103428 22.1584 0.589759 23.0072 1.37647 23.4646L12.0537 29.6609C12.8526 30.1249 13.8373 30.1115 14.624 29.6274L18.2451 27.3988C19.0208 26.9213 19.495 26.068 19.495 25.1478V20.9325C19.495 20.0134 19.0109 19.1656 18.2253 18.7083L6.6975 11.9955C5.91189 11.5382 5.42776 10.6893 5.42776 9.77131V4.05798L1.28515 6.43277C0.490732 6.88788 0 7.7412 0 8.6659V13.0842C0 14.0067 0.487431 14.8578 1.27854 15.314L13.5314 22.3893C13.8692 22.5845 13.9804 23.024 13.779 23.3597C13.5854 23.6821 13.1727 23.7903 12.8493 23.6018L0.103428 16.2197Z" fill="#3667C6"/>
<path d="M25.8965 13.7803V8.76185C25.8965 7.8416 25.4102 6.99275 24.6235 6.53541L13.9462 0.339096C13.1474 -0.124931 12.1626 -0.111546 11.3759 0.372559L7.75482 2.60123C6.97911 3.07864 6.50488 3.93196 6.50488 4.8522V9.06748C6.50488 9.98661 6.98901 10.8344 7.77462 11.2917L19.3013 18.0045C20.0869 18.4618 20.5711 19.3106 20.5711 20.2287V25.9409L24.7137 23.5661C25.5081 23.111 25.9988 22.2577 25.9988 21.333V16.9147C25.9988 15.9922 25.5114 15.1411 24.7203 14.6849L12.4696 7.61071C12.1318 7.4155 12.0207 6.97602 12.222 6.64027C12.4157 6.3179 12.8283 6.2097 13.1518 6.39821L25.8965 13.7803Z" fill="#3667C6"/>
</svg>
