<svg width="73" height="73" viewBox="0 0 73 73" fill="none" xmlns="http://www.w3.org/2000/svg">
<path fill-rule="evenodd" clip-rule="evenodd" d="M39.5334 66.9294C36.8452 66.8647 34.6952 64.6749 34.6798 61.9859V41.2534L18.9506 50.7208C17.9114 51.3057 16.5963 50.977 15.9546 49.9718C15.3533 48.9349 15.6851 47.6078 16.7036 46.9758L33.2118 36.8192L16.7036 26.7526C15.6851 26.1206 15.3533 24.7935 15.9546 23.7565C16.5963 22.7514 17.9114 22.4226 18.9506 23.0075L34.6798 32.3851V11.6525C34.6711 9.78374 35.7296 8.07382 37.4062 7.24836C39.0808 6.4105 41.084 6.58419 42.5894 7.69776L57.9291 19.2325C59.2615 20.2145 60.0058 21.8047 59.9065 23.4569C59.8082 25.1133 58.8855 26.6099 57.4497 27.4416L41.9003 36.8192L57.3898 46.2268C58.8111 47.0602 59.72 48.5506 59.8104 50.1957C59.9008 51.8409 59.1606 53.4218 57.8392 54.406L42.4995 65.9407C41.6448 66.5844 40.6034 66.9316 39.5334 66.9294ZM39.0841 40.3844V61.985C39.08 62.1508 39.1739 62.3034 39.3238 62.3744C39.4702 62.4668 39.6567 62.4668 39.8031 62.3744L55.1422 50.8701C55.269 50.7831 55.338 50.6336 55.322 50.4806C55.3356 50.3284 55.2515 50.1842 55.1123 50.1211L39.0841 40.3844ZM39.3238 11.203H39.5335C39.6304 11.205 39.7244 11.2363 39.8031 11.2928L55.1422 22.7672C55.2641 22.8445 55.3333 22.9828 55.322 23.1267C55.3261 23.2925 55.2322 23.4452 55.0823 23.5162L39.0841 33.193V11.5924C39.08 11.4266 39.1739 11.274 39.3238 11.203Z" fill="#8CA7DB"/>
</svg>
