<svg width="81" height="79" viewBox="0 0 81 79" fill="none" xmlns="http://www.w3.org/2000/svg">
<path d="M4.8186 37.1249C4.99905 35.809 5.14787 34.4876 5.36738 33.1773C7.72435 19.047 19.3064 7.3129 33.5058 4.68303C35.0722 4.39225 36.6627 4.22294 38.2421 3.99841C39.7284 3.99841 41.2129 3.99841 42.6993 3.99841C44.0052 4.17509 45.3186 4.31127 46.6152 4.5358C54.5176 5.90687 61.1774 9.55078 66.6484 15.3498C66.8028 15.5135 66.9423 15.6902 67.0893 15.8614C67.1451 15.8374 67.2009 15.8154 67.2567 15.7914C67.1302 14.8565 67.0037 13.9216 66.8754 12.9867C66.801 12.4401 66.6968 11.8972 66.6503 11.347C66.5926 10.6605 66.9219 10.2336 67.5135 10.1434C68.0808 10.0569 68.6054 10.4176 68.7003 11.0525C69.1226 13.894 69.5374 16.7374 69.9151 19.5863C70.0323 20.4788 69.2863 20.9463 68.3171 20.6279C66.2261 19.9451 64.1426 19.2458 62.0554 18.552C61.7708 18.4581 61.4769 18.3808 61.1978 18.2704C60.5765 18.0238 60.3198 17.5214 60.5077 16.9582C60.6918 16.4043 61.2202 16.1245 61.8545 16.3178C62.9167 16.6417 63.9641 17.0134 65.0207 17.3613C65.2142 17.4257 65.4151 17.4717 65.8113 17.5803C65.5713 17.284 65.4523 17.1165 65.3128 16.9656C59.2948 10.5317 51.8965 6.86017 43.0546 6.18292C26.0201 4.87995 10.8552 16.2957 7.5346 32.9491C6.15614 39.867 6.96536 46.5825 9.87482 53.0329C9.94179 53.1802 10.0199 53.32 10.0813 53.4691C10.3641 54.1482 10.1762 54.7242 9.5902 54.9745C9.03956 55.2101 8.48892 54.9764 8.18383 54.3341C6.59516 50.9828 5.56271 47.4677 5.0995 43.7907C5.00463 43.0416 4.91162 42.2908 4.8186 41.5417C4.8186 40.0695 4.8186 38.5972 4.8186 37.1249Z" fill="#8CA7DB" stroke="#8CA7DB" stroke-width="1.33157" stroke-miterlimit="10"/>
<path d="M38.3114 74.7046C37.006 74.5279 35.6932 74.3954 34.3971 74.1691C26.6021 72.8074 20.0157 69.2136 14.5655 63.5423C14.3461 63.3141 14.1285 63.0859 13.7603 62.9074C13.8924 63.8661 14.0262 64.823 14.1583 65.7817C14.2327 66.3282 14.3349 66.8729 14.3721 67.4213C14.4167 68.069 14.0225 68.5254 13.4405 68.5751C12.905 68.6211 12.4103 68.2549 12.3211 67.655C11.899 64.8138 11.4862 61.9708 11.1068 59.1222C10.9934 58.2776 11.6926 57.7752 12.5721 58.0347C13.4591 58.2978 14.3312 58.6107 15.2108 58.9014C16.6835 59.3872 18.1562 59.8693 19.6271 60.3625C20.4155 60.6275 20.7205 61.1188 20.5141 61.7444C20.3114 62.3572 19.7554 62.5707 18.9707 62.3204C17.7862 61.9395 16.6054 61.5475 15.2145 61.093C15.4544 61.4022 15.5566 61.5586 15.6831 61.6947C21.3174 67.7249 28.205 71.396 36.4612 72.375C51.5176 74.1617 65.6629 66.0633 71.4906 52.1812C75.191 43.3651 74.9864 34.4919 71.1428 25.7199C71.0777 25.5727 70.9996 25.431 70.9364 25.2838C70.6352 24.5827 70.7895 24.0325 71.3622 23.7546C71.9499 23.4713 72.5375 23.7086 72.8406 24.4576C73.4951 26.0751 74.1999 27.6833 74.7075 29.3487C80.7844 49.3069 67.7083 70.4465 47.0269 74.1212C45.6174 74.3715 44.1893 74.5132 42.7686 74.7046C41.281 74.7046 39.7971 74.7046 38.3114 74.7046Z" fill="#8CA7DB" stroke="#8CA7DB" stroke-width="1.33157" stroke-miterlimit="10"/>
<path d="M51.2084 18.8187C48.5079 21.4811 45.8482 24.078 43.2273 26.7131C42.668 27.2748 42.0642 27.5356 41.2881 27.5957C40.0231 27.6942 38.7617 27.8583 37.5004 28.0006C36.6799 28.0936 36.1002 28.5385 35.689 29.2279C34.9296 30.5044 34.1739 31.7828 33.4052 33.0538C32.8236 34.0149 32.0717 34.0641 31.3771 33.1888C30.151 31.6478 28.9341 30.0977 27.7153 28.5513C26.5429 27.0614 26.254 25.4001 26.704 23.5838C26.9708 22.5042 27.2041 21.4173 27.4912 20.1645C26.8485 20.635 26.3243 20.9942 25.828 21.3863C16.7319 28.6115 14.4315 41.3185 20.4233 51.2171C20.5289 51.3921 22.4551 54.1457 22.5347 54.3317C22.7681 54.8806 20.7882 52.7489 20.2862 53.0389C19.8028 53.3179 21.4507 55.958 21.0988 55.5368C20.8951 55.2924 18.6304 52.2602 18.4674 51.9848C9.95478 37.5527 17.9229 18.981 34.3517 14.9617C48.7542 11.4366 63.1068 20.6952 65.6332 35.1382C68.0188 48.7789 58.6838 61.8506 44.7943 64.1082C35.939 65.5471 28.3432 62.9083 22.0236 56.6515C20.5758 55.2181 19.9491 53.4075 20.4233 52.9498C20.9086 52.4811 22.8848 54.5853 23.5035 55.2181C27.0763 58.8744 31.3678 61.2743 36.4576 62.0621C45.7611 63.501 53.3625 60.4592 59.2061 53.2121C61.3639 50.5369 62.7271 47.4531 63.3994 44.0922C63.455 43.8168 63.3494 43.4138 63.1623 43.2059C61.3472 41.1689 59.4987 39.1629 57.6595 37.146C55.674 34.9686 55.3869 32.9371 56.6964 30.3147C57.441 28.8249 58.1948 27.3386 58.9134 25.8359C59.0079 25.6372 59.0246 25.2743 58.9042 25.1193C56.8242 22.4732 54.2626 20.3906 51.2084 18.8187Z" fill="#8CA7DB"/>
<path d="M32.2291 30.9767C31.1067 29.5032 29.9472 28.1392 28.997 26.6456C28.634 26.0767 28.5599 25.1831 28.6748 24.4883C28.973 22.6957 29.4397 20.9304 29.8676 19.1597C29.9176 18.9518 30.0991 18.6965 30.2899 18.6071C36.3984 15.7586 42.6235 15.4814 48.958 17.8284C48.9987 17.8448 49.0302 17.885 49.1043 17.9433C48.9709 18.091 48.8468 18.2424 48.7079 18.3792M63.7384 40.7331C64.131 35.9424 63.042 31.542 60.4989 27.3368C59.7525 28.8358 59.0542 30.2126 58.3782 31.6004C57.6947 33.0028 57.8947 34.3012 58.932 35.461M51.2084 18.8187C48.5079 21.4811 45.8482 24.078 43.2273 26.7131C42.668 27.2748 42.0642 27.5356 41.2881 27.5957C40.0231 27.6942 38.7617 27.8583 37.5004 28.0006C36.6799 28.0936 36.1002 28.5385 35.689 29.2279C34.9296 30.5044 34.1739 31.7828 33.4052 33.0538C32.8236 34.0149 32.0717 34.0641 31.3771 33.1888C30.151 31.6478 28.9341 30.0977 27.7153 28.5513C26.5429 27.0614 26.254 25.4001 26.704 23.5838C26.9708 22.5042 27.2041 21.4173 27.4912 20.1645C26.8485 20.635 26.3243 20.9942 25.828 21.3863C16.7319 28.6115 14.4315 41.3185 20.4233 51.2171C20.5289 51.3921 22.4551 54.1457 22.5347 54.3317C22.7681 54.8806 20.7882 52.7489 20.2862 53.0389C19.8028 53.3179 21.4507 55.958 21.0988 55.5368C20.8951 55.2924 18.6304 52.2602 18.4674 51.9848C9.95478 37.5527 17.9229 18.981 34.3517 14.9617C48.7542 11.4366 63.1068 20.6952 65.6332 35.1382C68.0188 48.7789 58.6838 61.8506 44.7943 64.1082C35.939 65.5471 28.3432 62.9083 22.0236 56.6515C20.5758 55.2181 19.9491 53.4075 20.4233 52.9498C20.9086 52.4811 22.8848 54.5853 23.5035 55.2181C27.0763 58.8744 31.3678 61.2743 36.4576 62.0621C45.7611 63.501 53.3625 60.4592 59.2061 53.2121C61.3639 50.5369 62.7271 47.4531 63.3994 44.0922C63.455 43.8168 63.3494 43.4138 63.1623 43.2059C61.3472 41.1689 59.4987 39.1629 57.6595 37.146C55.674 34.9686 55.3869 32.9371 56.6964 30.3147C57.441 28.8249 58.1948 27.3386 58.9134 25.8359C59.0079 25.6372 59.0246 25.2743 58.9042 25.1193C56.8242 22.4732 54.2626 20.3906 51.2084 18.8187Z" stroke="#8CA7DB" stroke-width="1.99736" stroke-miterlimit="10"/>
<path d="M42.3568 36.0227C43.6488 36.0543 44.6807 36.3399 45.5579 37.0175C47.7221 38.69 49.893 40.3525 52.0129 42.0764C53.7589 43.4981 54.0088 45.9362 52.5042 47.5804C49.7162 50.6264 46.85 53.6026 43.9871 56.5805C43.2748 57.3212 42.3381 57.5155 41.3521 57.1418C40.3797 56.7731 39.8152 56.059 39.7387 55.0243C39.7047 54.5692 39.7064 54.1108 39.7132 53.6558C39.7421 51.9036 39.2644 50.3025 38.2971 48.8261C37.4046 47.4642 36.558 46.0741 35.6791 44.7039C34.909 43.5014 34.6812 42.2126 34.977 40.8258C35.1895 39.831 35.385 38.8345 35.5907 37.838C35.7471 37.079 36.8555 36.888 37.4709 37.0175C38.0489 37.1371 37.6154 37.4394 37.4709 38.1884C37.272 39.2281 45.4185 39.3171 45.189 40.3501C44.9935 41.2354 49.9576 42.9249 50.4387 43.6789C51.2241 44.9113 49.6108 46.3763 50.4387 47.5804C51.848 49.6332 41.7261 51.7242 41.6275 54.1922C41.6105 54.619 41.4371 55.1654 42.0287 55.3863C42.5914 55.5956 42.809 55.0807 43.0946 54.7835C45.6446 52.1145 48.1828 49.4372 50.7226 46.7583C51.933 45.4811 51.8361 44.3019 50.4387 43.2091C48.6826 41.8356 46.8806 40.5153 45.189 39.0703C43.9718 38.0306 42.673 37.6885 41.1362 38.0605C40.9934 38.0954 40.8438 38.122 40.6976 38.1237C40.1638 38.132 37.4981 37.5108 37.4709 37.0175C37.442 36.4944 39.9291 36.3881 40.4562 36.2901C41.143 36.1639 41.84 36.0941 42.3568 36.0227Z" fill="#8CA7DB"/>
<path d="M37.4709 37.0175C36.8555 36.888 35.7471 37.079 35.5907 37.838C35.385 38.8345 35.1895 39.831 34.977 40.8258C34.6812 42.2126 34.909 43.5014 35.6791 44.7039C36.558 46.0741 37.4046 47.4642 38.2971 48.8261C39.2644 50.3025 39.7421 51.9036 39.7132 53.6558C39.7064 54.1108 39.7047 54.5692 39.7387 55.0243C39.8152 56.059 40.3797 56.7731 41.3521 57.1418C42.3381 57.5155 43.2748 57.3212 43.9871 56.5805C46.85 53.6026 49.7162 50.6264 52.5042 47.5804C54.0088 45.9362 53.7589 43.4981 52.0129 42.0764C49.893 40.3525 47.7221 38.69 45.5579 37.0175C44.6807 36.3399 43.6488 36.0543 42.3568 36.0227C41.84 36.0941 41.143 36.1639 40.4562 36.2901C39.9291 36.3881 37.442 36.4944 37.4709 37.0175ZM37.4709 37.0175C38.0489 37.1371 37.6154 37.4394 37.4709 38.1884C37.272 39.2281 45.4185 39.3171 45.189 40.3501C44.9935 41.2354 49.9576 42.9249 50.4387 43.6789C51.2241 44.9113 49.6108 46.3763 50.4387 47.5804C51.848 49.6332 41.7261 51.7242 41.6275 54.1922C41.6105 54.619 41.4371 55.1654 42.0287 55.3863C42.5914 55.5956 42.809 55.0807 43.0946 54.7835C45.6446 52.1145 48.1828 49.4372 50.7226 46.7583C51.933 45.4811 51.8361 44.3019 50.4387 43.2091C48.6826 41.8356 46.8806 40.5153 45.189 39.0703C43.9718 38.0306 42.673 37.6885 41.1362 38.0605C40.9934 38.0954 40.8438 38.122 40.6976 38.1237C40.1638 38.132 37.4981 37.5108 37.4709 37.0175Z" stroke="#8CA7DB" stroke-width="1.99736" stroke-miterlimit="10"/>
</svg>
