<svg width="19" height="16" viewBox="0 0 19 16" fill="none" xmlns="http://www.w3.org/2000/svg">
<path d="M0.962557 3.77004C0.774567 4.53557 0.637263 5.52416 0.44625 6.89945C0.010076 10.0399 -0.208011 11.6101 0.271518 12.8297C0.692494 13.9003 1.46979 14.793 2.47232 15.3573C3.61429 16 5.19958 16 8.37016 16H9.99438C13.165 16 14.7503 16 15.8922 15.3573C16.8948 14.793 17.6721 13.9003 18.0931 12.8297C18.5726 11.6101 18.3545 10.0399 17.9183 6.89945C17.7109 5.40583 17.5668 4.36829 17.3523 3.57727L16.6219 4.30771C14.9896 5.93999 13.7104 7.21918 12.5782 8.08306C11.4192 8.96729 10.3265 9.48679 9.06104 9.48679C7.79559 9.48679 6.70285 8.96729 5.54392 8.08306C4.41166 7.21918 3.13249 5.93999 1.50023 4.30771L0.962557 3.77004Z" fill="#BDBDBD"/>
<path d="M1.57494 2.2611L2.5203 3.20646C4.20196 4.88812 5.41098 6.09489 6.45379 6.89053C7.4793 7.67296 8.25543 7.98679 9.06104 7.98679C9.86666 7.98679 10.6428 7.67296 11.6683 6.89053C12.7111 6.09489 13.9201 4.88812 15.6018 3.20646L16.6915 2.11676C16.1835 1.39704 15.4934 0.823089 14.6901 0.454832C13.698 0 12.4634 0 9.99437 0H8.37019C5.90113 0 4.66661 0 3.67444 0.454832C2.81813 0.847386 2.09051 1.47367 1.57494 2.2611Z" fill="#BDBDBD"/>
</svg>
