<svg width="73" height="73" viewBox="0 0 73 73" fill="none" xmlns="http://www.w3.org/2000/svg">
<path d="M45.0568 7.13733C43.8158 7.13733 42.8097 8.14336 42.8097 9.38436C42.8097 10.6254 43.8158 11.6314 45.0568 11.6314H48.0528C55.0851 11.6314 60.786 17.3322 60.786 24.3645V27.3606C60.786 28.6016 61.792 29.6076 63.033 29.6076C64.274 29.6076 65.28 28.6016 65.28 27.3606V24.3645C65.28 14.8502 57.5671 7.13733 48.0528 7.13733H45.0568Z" fill="#8CA7DB"/>
<path d="M24.0845 7.13733C14.5702 7.13733 6.8573 14.8502 6.8573 24.3645V27.3606C6.8573 28.6016 7.86333 29.6076 9.10433 29.6076C10.3453 29.6076 11.3514 28.6016 11.3514 27.3606V24.3645C11.3514 17.3322 17.0522 11.6314 24.0845 11.6314H27.0806C28.3216 11.6314 29.3276 10.6254 29.3276 9.38436C29.3276 8.14336 28.3216 7.13733 27.0806 7.13733H24.0845Z" fill="#8CA7DB"/>
<path d="M36.0687 28.1096C31.5183 28.1096 27.8296 31.7984 27.8296 36.3487C27.8296 40.899 31.5183 44.5878 36.0687 44.5878C40.619 44.5878 44.3078 40.899 44.3078 36.3487C44.3078 31.7984 40.619 28.1096 36.0687 28.1096Z" fill="#8CA7DB"/>
<path d="M11.3514 45.3368C11.3514 44.0958 10.3453 43.0898 9.10433 43.0898C7.86333 43.0898 6.8573 44.0958 6.8573 45.3368V48.3328C6.8573 57.8472 14.5702 65.5601 24.0845 65.5601H27.0806C28.3216 65.5601 29.3276 64.554 29.3276 63.313C29.3276 62.072 28.3216 61.066 27.0806 61.066H24.0845C17.0522 61.066 11.3514 55.3652 11.3514 48.3328V45.3368Z" fill="#8CA7DB"/>
<path d="M65.28 45.3368C65.28 44.0958 64.274 43.0898 63.033 43.0898C61.792 43.0898 60.786 44.0958 60.786 45.3368V48.3328C60.786 55.3652 55.0851 61.066 48.0528 61.066H45.0568C43.8158 61.066 42.8097 62.072 42.8097 63.313C42.8097 64.554 43.8158 65.5601 45.0568 65.5601H48.0528C57.5671 65.5601 65.28 57.8472 65.28 48.3328V45.3368Z" fill="#8CA7DB"/>
</svg>
