<svg width="72" height="71" viewBox="0 0 72 71" fill="none" xmlns="http://www.w3.org/2000/svg">
<path d="M30.2971 8.4831L33.9728 8.4831V18.9177C30.9539 19.3114 28.184 20.5018 25.8838 22.2692L16.9914 13.3768L19.5905 10.7777C20.4518 9.91645 20.4518 8.52005 19.5905 7.65879C18.7292 6.79752 17.3328 6.79752 16.4716 7.65879L8.15442 15.9759C7.29315 16.8372 7.29315 18.2336 8.15442 19.0949C9.01569 19.9561 10.4121 19.9561 11.2733 19.0949L13.8725 16.4957L22.7648 25.3881C20.9971 27.6885 19.8064 30.4585 19.4127 33.4778H8.97809L8.97809 29.8021C8.97809 28.5841 7.9907 27.5967 6.77268 27.5967C5.55466 27.5967 4.56726 28.5841 4.56726 29.8021V41.5643C4.56726 42.7823 5.55466 43.7697 6.77268 43.7697C7.99069 43.7697 8.97809 42.7824 8.97809 41.5643L8.97809 37.8886H19.4127C19.8064 40.9084 20.9974 43.6788 22.7656 45.9793L13.8575 55.0648L11.2733 52.4806C10.4121 51.6193 9.01569 51.6193 8.15442 52.4806C7.29315 53.3419 7.29315 54.7382 8.15442 55.5995L16.4716 63.9167C17.3328 64.7779 18.7292 64.7779 19.5905 63.9167C20.4518 63.0554 20.4518 61.659 19.5905 60.7977L16.9766 58.1839L25.885 49.0981C28.185 50.8651 30.9544 52.0551 33.9728 52.4487V62.8833H30.2971C29.0791 62.8833 28.0917 63.8707 28.0917 65.0888C28.0917 66.3068 29.0791 67.2942 30.2971 67.2942H42.0593C43.2773 67.2942 44.2647 66.3068 44.2647 65.0888C44.2647 63.8707 43.2773 62.8833 42.0593 62.8833H38.3836V52.4487C41.4025 52.0551 44.1724 50.8647 46.4726 49.0972L55.5742 58.1991L52.9756 60.7977C52.1143 61.659 52.1143 63.0554 52.9756 63.9167C53.8368 64.7779 55.2332 64.7779 56.0945 63.9167L64.4116 55.5995C65.2729 54.7383 65.2729 53.3419 64.4116 52.4806C63.5504 51.6193 62.154 51.6193 61.2927 52.4806L58.6931 55.0802L49.5916 45.9784C51.3594 43.678 52.55 40.908 52.9437 37.8886H63.3783V41.5643C63.3783 42.7823 64.3657 43.7697 65.5838 43.7697C66.8018 43.7697 67.7892 42.7823 67.7892 41.5643V29.8021C67.7892 28.5841 66.8018 27.5967 65.5838 27.5967C64.3657 27.5967 63.3783 28.5841 63.3783 29.8021V33.4778H52.9437C52.5501 30.4593 51.36 27.6899 49.593 25.3899L58.6785 16.4807L61.2927 19.0949C62.154 19.9561 63.5504 19.9561 64.4116 19.0949C65.2729 18.2336 65.2729 16.8372 64.4116 15.9759L60.2778 11.8421L60.2686 11.8327L60.228 11.7923L56.0945 7.65879C55.2332 6.79752 53.8368 6.79752 52.9756 7.65879C52.1143 8.52005 52.1143 9.91645 52.9756 10.7777L55.5595 13.3616L46.4743 22.2705C44.1737 20.5024 41.4033 19.3115 38.3836 18.9177V8.4831L42.0593 8.4831C43.2773 8.4831 44.2647 7.4957 44.2647 6.27768C44.2647 5.05966 43.2773 4.07227 42.0593 4.07227H30.2971C29.0791 4.07227 28.0917 5.05967 28.0917 6.27768C28.0917 7.4957 29.0791 8.4831 30.2971 8.4831Z" fill="#8CA7DB"/>
</svg>
