<svg width="69" height="69" viewBox="0 0 69 69" fill="none" xmlns="http://www.w3.org/2000/svg">
<g clip-path="url(#clip0_32_2030)">
<path d="M40.4308 9.21635C40.4308 8.04434 41.3809 7.09424 42.5529 7.09424H45.3824C54.3678 7.09424 61.6519 14.3783 61.6519 23.3637V26.1932C61.6519 27.3652 60.7018 28.3153 59.5297 28.3153C58.3577 28.3153 57.4076 27.3652 57.4076 26.1932V23.3637C57.4076 16.7224 52.0237 11.3385 45.3824 11.3385H42.5529C41.3809 11.3385 40.4308 10.3884 40.4308 9.21635Z" fill="#8CA7DB"/>
<path d="M6.47707 23.3637C6.47707 14.3783 13.7612 7.09424 22.7466 7.09424H25.576C26.748 7.09424 27.6981 8.04434 27.6981 9.21635C27.6981 10.3884 26.748 11.3385 25.576 11.3385H22.7466C16.1052 11.3385 10.7213 16.7224 10.7213 23.3637V26.1932C10.7213 27.3652 9.77118 28.3153 8.59917 28.3153C7.42717 28.3153 6.47707 27.3652 6.47707 26.1932V23.3637Z" fill="#8CA7DB"/>
<path d="M0.818115 34.6816C0.818115 33.5096 1.76821 32.5595 2.94022 32.5595H65.1887C66.3607 32.5595 67.3108 33.5096 67.3108 34.6816C67.3108 35.8536 66.3607 36.8037 65.1887 36.8037H2.94022C1.76821 36.8037 0.818115 35.8536 0.818115 34.6816Z" fill="#8CA7DB"/>
<path d="M8.59917 41.048C9.77118 41.048 10.7213 41.9981 10.7213 43.1701V45.9995C10.7213 52.6409 16.1052 58.0248 22.7466 58.0248H25.576C26.748 58.0248 27.6981 58.9749 27.6981 60.1469C27.6981 61.3189 26.748 62.269 25.576 62.269H22.7466C13.7612 62.269 6.47707 54.9849 6.47707 45.9995V43.1701C6.47707 41.9981 7.42717 41.048 8.59917 41.048Z" fill="#8CA7DB"/>
<path d="M59.5297 41.048C60.7018 41.048 61.6519 41.9981 61.6519 43.1701V45.9995C61.6519 54.9849 54.3678 62.269 45.3824 62.269H42.5529C41.3809 62.269 40.4308 61.3189 40.4308 60.1469C40.4308 58.9749 41.3809 58.0248 42.5529 58.0248H45.3824C52.0237 58.0248 57.4076 52.6409 57.4076 45.9995V43.1701C57.4076 41.9981 58.3577 41.048 59.5297 41.048Z" fill="#8CA7DB"/>
<path d="M19.9171 42.6985C19.9171 49.2096 25.1954 54.488 31.7066 54.488H36.4224C42.9335 54.488 48.2118 49.2096 48.2118 42.6985C48.2118 41.3963 47.1562 40.3406 45.8539 40.3406H22.275C20.9727 40.3406 19.9171 41.3963 19.9171 42.6985Z" fill="#8CA7DB"/>
<path d="M31.7066 14.8753C25.1954 14.8753 19.9171 20.1536 19.9171 26.6648C19.9171 27.967 20.9727 29.0227 22.275 29.0227H45.8539C47.1562 29.0227 48.2118 27.967 48.2118 26.6648C48.2118 20.1536 42.9335 14.8753 36.4224 14.8753H31.7066Z" fill="#8CA7DB"/>
</g>
<defs>
<clipPath id="clip0_32_2030">
<rect width="67.9074" height="67.9074" fill="white" transform="translate(0.11084 0.727905)"/>
</clipPath>
</defs>
</svg>
