<svg width="70" height="56" viewBox="0 0 70 56" fill="none" xmlns="http://www.w3.org/2000/svg">
<path fill-rule="evenodd" clip-rule="evenodd" d="M29.1283 12.1027L29.1283 12.0856L12.6396 12.0854L28.456 6.37022L28.4543 6.36551C28.7572 6.28914 29.0707 6.26196 29.3826 6.28523C29.4238 6.2883 29.4649 6.29225 29.506 6.29708L29.5066 6.29715C29.9349 6.34761 30.3467 6.4926 30.7122 6.72167L30.7123 6.72171C31.0778 6.95079 31.3878 7.25821 31.62 7.62176L31.6204 7.62236C31.8525 7.98594 32.001 8.39655 32.0551 8.82452L32.0552 8.82534C32.1092 9.25349 32.0675 9.6883 31.9329 10.0983L31.9328 10.0987C31.7982 10.5088 31.5742 10.8839 31.2769 11.1968L31.2766 11.197C30.9794 11.5098 30.6164 11.7526 30.2139 11.9079L30.2131 11.9082C30.1753 11.9228 30.1372 11.9365 30.0988 11.9495C29.7862 12.0553 29.458 12.107 29.1283 12.1027ZM-0.000244141 10.4576V17.9113L29.0684 17.9117C30.1724 17.9241 31.2704 17.7266 32.3036 17.328L32.3044 17.3277C33.0909 17.0242 33.827 16.6091 34.4908 16.0971C34.8443 15.8244 35.1774 15.5242 35.4866 15.1987L35.4869 15.1984C36.3768 14.2617 37.0475 13.1388 37.4505 11.911L37.4507 11.9107C37.8536 10.6829 37.9788 9.38085 37.8171 8.09875L37.817 8.09793C37.6553 6.81579 37.2107 5.58564 36.5155 4.49641L36.5151 4.49582C35.8197 3.40646 34.8909 2.48532 33.796 1.79902L33.7959 1.79899C33.4154 1.5605 33.0182 1.35243 32.6079 1.17612C31.8375 0.845074 31.0212 0.625966 30.1839 0.527522L30.1833 0.527449C28.9357 0.380872 27.6717 0.505688 26.4776 0.892839L26.4767 0.890357L26.3873 0.922652L26.3768 0.926201L26.3756 0.926611L26.3756 0.926872L-0.000244141 10.4576ZM-0.000244141 35.416V41.4003L38.4658 55.085L38.4654 55.0861C39.8575 55.6416 41.3549 55.8831 42.851 55.7933C43.4262 55.7588 43.9958 55.6757 44.5538 55.5456C45.4471 55.3374 46.3108 55.0089 47.1206 54.567C48.4364 53.8492 49.5777 52.8498 50.4631 51.6402C51.3485 50.4306 51.9563 49.0406 52.2432 47.5691C52.53 46.0976 52.4889 44.581 52.1226 43.1272C51.7564 41.6735 51.0741 40.3184 50.1244 39.1587C49.5398 38.4448 48.8627 37.8157 48.113 37.287C47.6448 36.9568 47.1482 36.6657 46.6281 36.4176C45.2775 35.7731 43.8015 35.4342 42.3051 35.4248V35.4161L-0.000244141 35.416ZM42.2656 41.2422L16.9381 41.2421L40.7331 49.7075L40.731 49.7135C41.2965 49.9222 41.8997 50.0115 42.5022 49.9754C43.1429 49.9369 43.7672 49.7576 44.3306 49.4502C44.894 49.1428 45.3828 48.7149 45.7619 48.1969C46.1411 47.6789 46.4014 47.0837 46.5242 46.4536C46.647 45.8234 46.6294 45.174 46.4726 44.5515C46.3158 43.9289 46.0236 43.3487 45.6169 42.852C45.2102 42.3554 44.699 41.9546 44.1197 41.6782C43.5412 41.4022 42.9091 41.2571 42.2682 41.2531L42.2656 41.2531L42.2656 41.252L42.2656 41.2422ZM55.3958 12.8419L55.3932 12.8433L52.5284 7.77079L52.5251 7.76493L52.5308 7.7617C54.0819 6.88628 55.8131 6.3782 57.5912 6.27655C57.8491 6.2618 58.1071 6.25567 58.3645 6.25806C59.8844 6.27222 61.3894 6.58377 62.7939 7.17786C64.4364 7.8726 65.8975 8.93518 67.0647 10.2838C68.2319 11.6323 69.0741 13.2309 69.5263 14.9564C69.9786 16.6818 70.0289 18.4881 69.6734 20.236C69.3178 21.984 68.5659 23.627 67.4755 25.0385C66.5432 26.2453 65.3848 27.2554 64.0676 28.0137C63.8442 28.1422 63.6164 28.2635 63.3842 28.3773C61.783 29.1625 60.023 29.5694 58.2398 29.567V29.5661H-0.000244141V23.7405H58.2479L58.2479 23.7342C59.1387 23.7354 60.0179 23.5321 60.8178 23.1399C61.6176 22.7477 62.3168 22.1771 62.8615 21.472C63.4062 20.767 63.7818 19.9462 63.9594 19.0731C64.137 18.1999 64.1119 17.2976 63.8859 16.4357C63.66 15.5738 63.2393 14.7752 62.6563 14.1016C62.0732 13.4279 61.3433 12.8971 60.5229 12.5501C59.7024 12.203 58.8133 12.049 57.9239 12.0998C57.0356 12.1506 56.1707 12.4045 55.3958 12.8419Z" fill="#8CA7DB"/>
</svg>
